<svg width="14" height="18" viewBox="0 0 14 18" fill="none" xmlns="http://www.w3.org/2000/svg">
<g clip-path="url(#clip0_7_23)">
<path d="M7.19001 17.7737C7.0668 17.8183 6.93222 17.8183 6.80901 17.7737C-0.170991 15.2643 -0.0619908 9.31963 0.0180092 4.97773C0.0260092 4.51122 0.0340092 4.07012 0.0340092 3.64426C0.0326765 3.48539 0.0934264 3.33248 0.202921 3.2191C0.312415 3.10572 0.461704 3.04113 0.618009 3.03952C3.11201 3.03952 5.01001 2.29555 6.59301 0.699854C6.64633 0.645492 6.70969 0.60236 6.77944 0.57293C6.8492 0.5435 6.92398 0.528351 6.99951 0.528351C7.07504 0.528351 7.14982 0.5435 7.21957 0.57293C7.28933 0.60236 7.35269 0.645492 7.40601 0.699854C8.98901 2.29555 10.888 3.03952 13.383 3.03952C13.5391 3.0414 13.6882 3.1061 13.7975 3.21946C13.9067 3.33281 13.9673 3.48557 13.966 3.64426C13.966 4.07113 13.974 4.51122 13.983 4.97773C14.063 9.31862 14.172 15.2643 7.19101 17.7737H7.19001ZM12.817 5.00111C12.812 4.73888 12.807 4.48479 12.805 4.2368C10.467 4.13415 8.59901 3.40033 7.00001 1.95506C5.40001 3.40033 3.53301 4.13415 1.19701 4.2368L1.18401 5.00111C1.10401 9.36537 1.01401 14.3059 7.00001 16.5612C12.987 14.3049 12.897 9.36537 12.816 5.00111H12.817ZM9.83301 7.06737C9.9426 7.18196 10.0039 7.33546 10.0039 7.49526C10.0039 7.65506 9.9426 7.80857 9.83301 7.92315L6.60601 11.269C6.55249 11.3252 6.48839 11.3699 6.41752 11.4005C6.34666 11.431 6.27048 11.4467 6.19351 11.4467C6.11654 11.4467 6.04036 11.431 5.96949 11.4005C5.89863 11.3699 5.83453 11.3252 5.78101 11.269L4.16701 9.59507C4.05718 9.48061 3.99571 9.32706 3.99571 9.16718C3.99571 9.0073 4.05718 8.85375 4.16701 8.73929C4.2206 8.6832 4.28473 8.63861 4.35558 8.60816C4.42644 8.57771 4.50258 8.56202 4.57951 8.56202C4.65644 8.56202 4.73258 8.57771 4.80344 8.60816C4.87429 8.63861 4.93842 8.6832 4.99201 8.73929L6.19301 9.98535L9.00801 7.06636C9.0616 7.01027 9.12573 6.96568 9.19658 6.93523C9.26744 6.90478 9.34358 6.88909 9.42051 6.88909C9.49744 6.88909 9.57358 6.90478 9.64444 6.93523C9.71529 6.96568 9.77942 7.01027 9.83301 7.06636V7.06737Z" fill="#787878"/>
</g>
<defs>
<clipPath id="clip0_7_23">
<rect width="14" height="17.2782" fill="white" transform="translate(0 0.529083)"/>
</clipPath>
</defs>
</svg>
